<?xml version="1.0" encoding="UTF-8"?><svg id="Layer_1" xmlns="http://www.w3.org/2000/svg" xmlns:xlink="http://www.w3.org/1999/xlink" viewBox="0 0 1971.53 605.03"><defs><style>.cls-1{fill:#fff;}.cls-2{clip-path:url(#clippath-2);}.cls-3{fill:url(#radial-gradient);}.cls-4{fill:#2bc0d3;}.cls-5{fill:none;}.cls-6{filter:url(#outer-glow-5);}.cls-7{filter:url(#outer-glow-7);}.cls-8{filter:url(#outer-glow-6);}</style><clipPath id="clippath"><rect class="cls-5" x="1971.53" y="-1808.76" width="1920" height="1454.91"/></clipPath><clipPath id="clippath-2"><rect class="cls-5" x="1971.53" y="-353.85" width="1920" height="1454.91"/></clipPath><radialGradient id="radial-gradient" cx="2907.33" cy="374.3" fx="2907.33" fy="374.3" r="1105.23" gradientTransform="translate(0 98.77) scale(1 .74)" gradientUnits="userSpaceOnUse"><stop offset="0" stop-color="#2ec0d3" stop-opacity=".3"/><stop offset=".16" stop-color="#2ec0d3" stop-opacity=".23"/><stop offset=".48" stop-color="#2ec0d3" stop-opacity=".1"/><stop offset=".77" stop-color="#2ec0d3" stop-opacity=".03"/><stop offset="1" stop-color="#2ec0d3" stop-opacity="0"/></radialGradient><filter id="outer-glow-1" filterUnits="userSpaceOnUse"><feOffset dx="0" dy="0"/><feGaussianBlur result="blur" stdDeviation="19.31"/><feFlood flood-color="#34c4e7" flood-opacity=".75"/><feComposite in2="blur" operator="in"/><feComposite in="SourceGraphic"/></filter><filter id="outer-glow-5" filterUnits="userSpaceOnUse"><feOffset dx="0" dy="0"/><feGaussianBlur result="blur-2" stdDeviation="19.31"/><feFlood flood-color="#34c4e7" flood-opacity=".75"/><feComposite in2="blur-2" operator="in"/><feComposite in="SourceGraphic"/></filter><filter id="outer-glow-6" filterUnits="userSpaceOnUse"><feOffset dx="0" dy="0"/><feGaussianBlur result="blur-3" stdDeviation="19.31"/><feFlood flood-color="#34c4e7" flood-opacity=".75"/><feComposite in2="blur-3" operator="in"/><feComposite in="SourceGraphic"/></filter><filter id="outer-glow-7" filterUnits="userSpaceOnUse"><feOffset dx="0" dy="0"/><feGaussianBlur result="blur-4" stdDeviation="19.31"/><feFlood flood-color="#34c4e7" flood-opacity=".75"/><feComposite in2="blur-4" operator="in"/><feComposite in="SourceGraphic"/></filter></defs><g class="cls-2"><ellipse class="cls-3" cx="2907.33" cy="374.3" rx="1110.68" ry="825.86"/></g><g><g class="cls-6"><path class="cls-1" d="M543.14,458.32h-24.39V237.16c0-3.12,.87-12.27,2.61-27.45l-47.66,215.8h-5.21l-47.66-215.8c1.74,15.33,2.61,24.47,2.61,27.45v221.16h-24.39V109.07h24.02l47.29,227.18c.25,1.19,.5,4.54,.75,10.04,0-2.23,.25-5.58,.74-10.04l47.29-227.18h24.02V458.32Z"/><path class="cls-1" d="M706.42,433.55c0,7.29-1.99,13.24-5.96,17.85-3.97,4.61-9,6.92-15.08,6.92h-75.03c-6.08,0-11.05-2.3-14.89-6.92-3.85-4.61-5.77-10.56-5.77-17.85V133.84c0-7.29,1.92-13.24,5.77-17.85,3.84-4.61,8.81-6.92,14.89-6.92h75.03c6.08,0,11.11,2.31,15.08,6.92,3.97,4.61,5.96,10.57,5.96,17.85v81.23h-26.06v-78.55h-64.79V430.87h64.79v-85.92h26.06v88.6Z"/><path class="cls-1" d="M865.22,433.55c0,7.29-1.89,13.24-5.68,17.85-3.79,4.61-8.72,6.92-14.8,6.92h-73.35c-6.08,0-11.08-2.3-14.99-6.92-3.91-4.61-5.86-10.56-5.86-17.85v-88.6h25.88v85.92h62.93v-83.24l-80.43-116.49c-5.58-8.03-8.38-16.88-8.38-26.56v-70.74c0-7.29,1.96-13.24,5.86-17.85,3.91-4.61,8.9-6.92,14.99-6.92h73.35c6.08,0,11.01,2.31,14.8,6.92,3.78,4.61,5.68,10.57,5.68,17.85v81.23h-25.88v-78.55h-62.93v73.64l80.8,116.49c5.33,7.74,8,16.44,8,26.11v80.79Z"/><path class="cls-1" d="M1011.36,136.51h-45.05V458.32h-25.88V136.51h-45.43v-27.45h116.36v27.45Z"/><path class="cls-1" d="M1142.43,458.32h-24.39v-6.03c-9.93,1.64-19.8,3.2-29.6,4.69-11.92,1.79-21.78,2.68-29.6,2.68-13.4,0-20.11-8.03-20.11-24.1V241.18h24.39v190.58l54.92-1.79V241.18h24.39v217.14Z"/><path class="cls-1" d="M1277.59,312.59h-24.39v-44.86l-45.61,1.79v188.8h-24.76V241.18h24.76v6.03c8.19-1.49,16.44-3.05,24.76-4.69,9.93-1.79,18.18-2.68,24.76-2.68,13.65,0,20.48,8.11,20.48,24.33v48.43Z"/><path class="cls-1" d="M1374.21,458.32h-35.19c-13.9,0-20.85-8.4-20.85-25.22v-165.81h-21.78v-26.11h21.78v-67.62h24.39v67.62h31.65v26.11h-31.65v164.92h31.65v26.11Z"/><path class="cls-1" d="M1431.74,458.32h-24.39V109.07h24.39V458.32Z"/><path class="cls-1" d="M1575.09,433.1c0,16.81-6.95,25.22-20.85,25.22h-59.57c-13.9,0-20.85-8.4-20.85-25.22v-166.7c0-16.81,6.95-25.22,20.85-25.22h59.57c13.9,0,20.85,8.41,20.85,25.22v78.11l-8.38,10.49h-68.88v78.55h53.25v-39.72h24.02v39.28Zm-24.02-101.76v-65.39h-53.25v65.39h53.25Z"/></g><g class="cls-8"><path class="cls-4" d="M1575.14,507.56H389.38c-5.33,0-9.65-4.32-9.65-9.65s4.32-9.65,9.65-9.65H1575.14c5.33,0,9.65,4.32,9.65,9.65s-4.32,9.65-9.65,9.65Z"/></g><g class="cls-7"><path class="cls-4" d="M1516.31,171.12h-43.62c-5.33,0-9.65-4.32-9.65-9.65s4.32-9.65,9.65-9.65h43.62c5.33,0,9.65,4.32,9.65,9.65s-4.32,9.65-9.65,9.65Z"/><path class="cls-4" d="M1279.64,171.12h-169.83c-5.33,0-9.65-4.32-9.65-9.65s4.32-9.65,9.65-9.65h169.83c5.33,0,9.65,4.32,9.65,9.65s-4.32,9.65-9.65,9.65Z"/><path class="cls-4" d="M1080.39,200.53c-21.54,0-39.07-17.53-39.07-39.07s17.53-39.07,39.07-39.07,39.07,17.53,39.07,39.07-17.53,39.07-39.07,39.07Zm0-58.83c-10.9,0-19.76,8.86-19.76,19.76s8.86,19.76,19.76,19.76,19.76-8.86,19.76-19.76-8.86-19.76-19.76-19.76Z"/><path class="cls-4" d="M1545.73,200.53c-21.54,0-39.07-17.53-39.07-39.07s17.53-39.07,39.07-39.07,39.07,17.53,39.07,39.07-17.53,39.07-39.07,39.07Zm0-58.83c-10.9,0-19.76,8.86-19.76,19.76s8.86,19.76,19.76,19.76,19.76-8.86,19.76-19.76-8.86-19.76-19.76-19.76Z"/></g></g></svg>