<?xml version="1.0" standalone="no"?>
<!DOCTYPE svg PUBLIC "-//W3C//DTD SVG 20010904//EN"
 "http://www.w3.org/TR/2001/REC-SVG-20010904/DTD/svg10.dtd">
<svg version="1.0" xmlns="http://www.w3.org/2000/svg"
 width="106.000000pt" height="106.000000pt" viewBox="0 0 106.000000 106.000000"
 preserveAspectRatio="xMidYMid meet">
<metadata>
Created by potrace 1.14, written by Peter Selinger 2001-2017
</metadata>
<g transform="translate(0.000000,106.000000) scale(0.100000,-0.100000)"
fill="#000000" stroke="none">
<path d="M0 525 l0 -515 530 0 530 0 0 515 0 515 -530 0 -530 0 0 -515z m163
218 c9 -38 21 -96 28 -131 6 -34 14 -60 17 -58 2 3 16 60 31 128 25 119 27
123 54 126 l27 3 0 -261 0 -261 -27 3 -28 3 -4 100 -3 100 -17 -75 c-24 -106
-42 -105 -67 2 l-19 83 -3 -107 -3 -108 -29 0 -30 0 0 260 0 260 29 0 c28 0
30 -3 44 -67z m385 -20 l3 -83 -31 0 c-30 0 -30 0 -30 55 l0 55 -35 0 -35 0 0
-200 0 -200 35 0 35 0 0 60 0 60 30 0 31 0 -3 -87 -3 -88 -78 -3 c-50 -2 -84
1 -93 9 -19 16 -21 478 -2 497 9 9 39 12 93 10 l80 -3 3 -82z m220 75 c7 -7
12 -42 12 -85 l0 -73 -30 0 c-30 0 -30 1 -30 55 l0 55 -35 0 c-35 0 -35 -1
-35 -43 0 -37 10 -57 65 -138 l64 -94 1 -81 c0 -49 -5 -85 -12 -92 -16 -16
-150 -16 -166 0 -7 7 -12 43 -12 90 l0 78 30 0 30 0 0 -61 0 -60 33 3 c30 3
32 5 35 48 3 41 -3 53 -63 140 l-65 95 0 76 c0 45 5 80 12 87 16 16 150 16
166 0z m222 -18 c0 -27 -3 -30 -30 -30 l-30 0 -2 -227 -3 -228 -30 0 -30 0 -3
228 -2 227 -30 0 c-27 0 -30 3 -30 30 l0 30 95 0 95 0 0 -30z m10 -560 c0 -7
-163 -10 -470 -10 -307 0 -470 3 -470 10 0 7 163 10 470 10 307 0 470 -3 470
-10z"/>
</g>
</svg>
